# xmcd
#
# Track frame offsets:
#	150
#	16857
#	33142
#	50237
#	65917
#	82107
#	97742
#	113115
#	129279
#	146332
#	164670
#
# Disc length: 2455 seconds
#
# Revision: 0
# Processed by: cddbd v1.5.2PL0 Copyright (c) Steve Scherf et al.
# Submitted via: EZCDAudioConverter 2.0.5.1
#
DISCID=9009950b
DTITLE=Dave Bourgeois
DYEAR=2007
DGENRE=Chanson quebecoise
TTITLE0=Trop souvent
TTITLE1=Passion d'avril
TTITLE2=Motel en Gaspesie
TTITLE3=Il faut rever
TTITLE4=Est-ce que tu es la
TTITLE5=Pourquoi (avec Suzie Villeneuve)
TTITLE6=Fais ce que tu veux
TTITLE7=Pour etre moi
TTITLE8=Elle a tes ailes
TTITLE9=Casser la voix
TTITLE10=A prendre ou a laisser
EXTD=
EXTT0=
EXTT1=
EXTT2=
EXTT3=
EXTT4=
EXTT5=
EXTT6=
EXTT7=
EXTT8=
EXTT9=
EXTT10=
PLAYORDER=
